<svg width="68" height="31" viewBox="0 0 68 31" fill="none" xmlns="http://www.w3.org/2000/svg">
<path d="M6.01601 1.15199C6.72001 1.15199 7.31734 1.39732 7.80801 1.88799C8.29867 2.37865 8.54401 2.96532 8.54401 3.64799C8.54401 4.33065 8.29867 4.91732 7.80801 5.40799C7.31734 5.89865 6.72001 6.14399 6.01601 6.14399C5.33334 6.14399 4.74667 5.89865 4.25601 5.40799C3.76534 4.91732 3.52001 4.33065 3.52001 3.64799C3.52001 2.94399 3.76534 2.35732 4.25601 1.88799C4.74667 1.39732 5.33334 1.15199 6.01601 1.15199ZM11.744 1.15199C12.448 1.15199 13.0453 1.39732 13.536 1.88799C14.0267 2.37865 14.272 2.96532 14.272 3.64799C14.272 4.33065 14.0267 4.91732 13.536 5.40799C13.0453 5.89865 12.448 6.14399 11.744 6.14399C11.0613 6.14399 10.4747 5.89865 9.98401 5.40799C9.51467 4.91732 9.28001 4.33065 9.28001 3.64799C9.28001 2.94399 9.51467 2.35732 9.98401 1.88799C10.4747 1.39732 11.0613 1.15199 11.744 1.15199ZM14.272 7.32799V18.336C14.272 18.464 14.3147 18.5707 14.4 18.656C14.4853 18.7413 14.6133 18.784 14.784 18.784H15.872V22.912H13.344C12.256 22.912 11.264 22.4853 10.368 21.632C9.32267 22.6773 8.06401 23.2 6.59201 23.2H6.56001H6.49601C4.36267 23.2 2.68801 22.3147 1.47201 20.544C0.490672 19.1573 5.60284e-06 17.504 5.60284e-06 15.584C5.60284e-06 13.2373 0.746672 11.296 2.24001 9.75999C3.58401 8.37332 5.25867 7.67999 7.26401 7.67999C8.35201 7.67999 9.42934 7.90399 10.496 8.35199L11.808 7.32799H14.272ZM9.31201 12.16C8.80001 12.032 8.32001 11.968 7.87201 11.968C6.93334 11.968 6.19734 12.288 5.66401 12.928C5.13067 13.568 4.86401 14.4533 4.86401 15.584C4.86401 16.6507 5.15201 17.5253 5.72801 18.208C6.32534 18.8907 7.09334 19.232 8.03201 19.232C8.39467 19.232 8.82134 19.1787 9.31201 19.072V12.16ZM23.8353 1.15199C24.5393 1.15199 25.1259 1.39732 25.5953 1.88799C26.0859 2.35732 26.3313 2.94399 26.3313 3.64799C26.3313 4.33065 26.0859 4.91732 25.5953 5.40799C25.1259 5.89865 24.5393 6.14399 23.8353 6.14399C23.1526 6.14399 22.5659 5.89865 22.0753 5.40799C21.5846 4.91732 21.3393 4.33065 21.3393 3.64799C21.3393 2.96532 21.5846 2.37865 22.0753 1.88799C22.5659 1.39732 23.1526 1.15199 23.8353 1.15199ZM26.3313 8.19199V18.944C26.3313 19.8827 26.0219 20.7253 25.4033 21.472C24.5926 22.432 23.5686 22.912 22.3313 22.912H15.6433V18.784H20.9233C21.0513 18.784 21.1579 18.752 21.2433 18.688C21.3499 18.6027 21.4033 18.4853 21.4033 18.336V8.19199H26.3313ZM35.6885 -1.33514e-05V21.696L33.1925 23.712H30.7605V-1.33514e-05H35.6885ZM44.8615 1.15199C45.5442 1.15199 46.1308 1.39732 46.6215 1.88799C47.1122 2.35732 47.3575 2.94399 47.3575 3.64799C47.3575 4.33065 47.1122 4.91732 46.6215 5.40799C46.1308 5.89865 45.5442 6.14399 44.8615 6.14399C44.1575 6.14399 43.5602 5.89865 43.0695 5.40799C42.5788 4.91732 42.3335 4.33065 42.3335 3.64799C42.3335 2.96532 42.5788 2.37865 43.0695 1.88799C43.5602 1.39732 44.1575 1.15199 44.8615 1.15199ZM47.3255 8.19199V18.784H48.9255V22.912H47.2615C47.0268 25.3867 45.9495 27.328 44.0295 28.736C42.4295 29.9093 40.5415 30.496 38.3655 30.496C38.1095 30.496 37.7575 30.4853 37.3095 30.464L35.2935 27.936V26.24C35.3575 26.2613 35.4748 26.2827 35.6455 26.304C36.2002 26.4107 36.6908 26.464 37.1175 26.464C38.8242 26.4427 40.1148 26.0267 40.9895 25.216C41.9068 24.3413 42.3655 22.976 42.3655 21.12V8.19199H47.3255ZM58.8498 1.15199C59.5324 1.15199 60.1084 1.39732 60.5778 1.88799C61.0684 2.35732 61.3138 2.94399 61.3138 3.64799C61.3138 4.35199 61.0684 4.94932 60.5778 5.43999C60.1084 5.90932 59.5324 6.14399 58.8498 6.14399C58.1458 6.14399 57.5484 5.89865 57.0578 5.40799C56.5671 4.91732 56.3218 4.33065 56.3218 3.64799C56.3218 2.96532 56.5671 2.37865 57.0578 1.88799C57.5484 1.39732 58.1458 1.15199 58.8498 1.15199ZM52.9618 8.73599C55.0951 8.11732 56.9404 7.80799 58.4978 7.80799C61.0578 7.80799 63.2231 8.60799 64.9938 10.208C66.6151 11.7013 67.4258 13.5253 67.4258 15.68V18.944C67.4258 20.032 67.0418 20.96 66.2738 21.728C65.4844 22.5173 64.5351 22.912 63.4258 22.912H48.7058V18.784H62.0178C62.3164 18.784 62.4658 18.6347 62.4658 18.336V16.224C62.4658 14.816 61.8578 13.7173 60.6418 12.928C59.6818 12.3093 58.5724 12 57.3138 12C56.1404 12 54.6898 12.224 52.9618 12.672V8.73599Z" fill="#1C1917"/>
</svg>
