<svg width="64" height="64" viewBox="0 0 64 64" fill="none" xmlns="http://www.w3.org/2000/svg">
<rect width="64" height="64" rx="20" fill="#1C1917"/>
<path d="M32.7373 22.1C33.3773 22.1 33.9273 22.33 34.3873 22.79C34.8473 23.23 35.0773 23.78 35.0773 24.44C35.0773 25.1 34.8473 25.66 34.3873 26.12C33.9273 26.56 33.3773 26.78 32.7373 26.78C32.0773 26.78 31.5173 26.55 31.0573 26.09C30.6173 25.63 30.3973 25.08 30.3973 24.44C30.3973 23.8 30.6173 23.25 31.0573 22.79C31.5173 22.33 32.0773 22.1 32.7373 22.1ZM27.5773 29.21C29.4573 28.63 31.1873 28.34 32.7673 28.34C35.1673 28.34 37.1873 29.09 38.8273 30.59C40.3473 31.99 41.1073 33.7 41.1073 35.72V38.78C41.1073 39.8 40.7373 40.69 39.9973 41.45C39.2573 42.15 38.3873 42.5 37.3873 42.5H31.3273C28.8273 42.5 27.5773 43.72 27.5773 46.16C27.5773 48.7 29.3873 49.97 33.0073 49.97C34.1873 49.97 35.3173 49.8 36.3973 49.46V51.05L34.4173 53.48C33.6773 53.72 32.8973 53.84 32.0773 53.84C29.1973 53.84 26.9373 53.08 25.2973 51.56C23.7373 50.14 22.9573 48.21 22.9573 45.77C22.9573 43.23 23.9473 41.34 25.9273 40.1C27.4473 39.12 29.3673 38.63 31.6873 38.63H36.0373C36.3373 38.63 36.4873 38.49 36.4873 38.21V36.23C36.4873 35.11 36.0173 34.17 35.0773 33.41C34.1573 32.65 33.0373 32.27 31.7173 32.27C30.5773 32.27 29.1973 32.48 27.5773 32.9V29.21Z" fill="white"/>
</svg>
